PathFileType	4	(X/Y/Z)	OpenSim_Sub06_EMGStiffKnee_Gyro.trc
DataRate	CameraRate	NumFrames	NumMarkers	Units	OrigDataRate	OrigDataStartFrame	OrigNumFrames
100	100	40	8	m	100	4754	5432
Frame#	Time	torso_imu_offset_imu	pelvis_imu_offset_imu	tibia_r_imu_offset_imu	femur_r_imu_offset_imu	tibia_l_imu_offset_imu	femur_l_imu_offset_imu	toes_r_imu_offset_imu	toes_l_imu_offset_imu
				X1	Y1	Z1	X2	Y2	Z2	X3	Y3	Z3	X4	Y4	Z4	X5	Y5	Z5	X6	Y6	Z6	X7	Y7	Z7	X8		Y8	Z8	

4754	47.53000000	0.69796800	0.41917600	-0.05542700	0.78421700	-0.91790200	0.14085700	-4.08171700	-0.85787400	-2.41762700	-1.65140600	-1.63662100	0.45475300	-0.16229200	0.59946300	2.49417000	-0.29407000	0.00163800	0.12802900	-7.96546200	-3.38054900	-1.97399600	-0.35500900	-0.91572300	0.43823900
4755	47.54000000	0.68932600	0.48086500	-0.09671800	0.91808200	-1.09707300	0.77637000	-2.92877200	-0.61421000	-2.14825800	-1.82463700	-2.23712800	-0.50557000	-0.03103400	0.41407500	2.56941900	-0.23278800	0.02944800	-0.22613000	5.98062800	2.74710700	0.23484500	-0.51003000	-1.43149300	0.72950800
4756	47.55000000	0.52901900	0.65793000	0.01100300	0.57253800	-0.36394400	1.09339200	1.95740900	0.81305100	-1.04482000	0.79314700	0.02624300	-0.73098500	0.13007300	0.25268600	2.60636600	-0.35503500	-0.00740900	-0.49344800	-1.54041800	-0.37001900	-0.18807200	-0.78258100	-1.94913800	1.12608000
4757	47.56000000	0.37366300	0.47517400	0.13288400	-0.86708100	-0.18201300	0.66869800	4.65711900	0.77576300	-1.19658500	2.19572800	1.79824500	-0.37109300	0.03431800	-0.03859000	2.84056500	-0.51582100	-0.00629800	-0.71156700	-0.35668700	-0.51685000	0.12618800	-0.68936600	-2.56610500	1.46010300
4758	47.57000000	0.39524600	0.31775900	0.20987200	-1.31757800	-0.09475500	0.12031800	4.21798100	-0.13447100	-1.69788400	0.31716100	0.74499700	0.30561900	-0.08470800	-0.42879200	2.97325200	-0.54170000	0.08049400	-0.98211700	-0.70115700	-0.83423300	0.33890200	-1.02430800	-3.15556200	1.79295300
4759	47.58000000	0.36360400	0.19741800	0.20419800	-0.86159000	0.15474600	-0.13585100	4.46223500	-0.37280900	-2.02803300	-1.80984600	-0.14527900	0.82949100	0.18919700	-0.58250000	2.93827700	-0.52638600	0.36250700	-1.47544000	-0.61300000	-0.93867100	0.48602200	-1.18148200	-3.82129500	2.01860000
4760	47.59000000	0.33867500	0.00035400	0.11126400	-0.27991300	0.12035800	-0.26439300	4.48594500	-0.58099900	-1.78281300	-1.66731600	0.04181300	0.71859500	0.64380000	-0.45006600	2.89755300	-0.28365300	0.87909900	-2.08147200	-0.83680700	-0.91969000	0.48844800	-0.48063100	-4.42756700	2.13654500
4761	47.60000000	0.29593000	-0.08510900	0.20974000	0.12122000	-0.06925800	-0.41991700	3.14325800	-0.72601900	-1.41478600	-0.60528700	0.38476000	0.62133000	0.93614900	-0.18273100	2.90151200	0.15112200	1.33343200	-2.53717200	-0.27445700	-0.77570800	0.25538800	0.11101700	-4.83815300	2.25102300
4762	47.61000000	0.39346600	-0.14238200	0.34061900	0.38722300	-0.14909800	-0.48097100	0.89808600	-0.66266000	-1.67542000	0.05273500	0.24568200	0.40320100	1.15699500	-0.03491100	2.85179500	0.49709800	1.51164300	-2.71179000	-0.26005800	-0.58998100	-0.07034900	0.71598400	-5.25641600	2.33608000
4763	47.62000000	0.58972700	-0.22232700	0.36945000	0.61477800	-0.11405900	-0.30269000	-0.61659200	-0.56032600	-1.56968000	-0.28911400	-0.03146300	-0.00349000	1.36249700	0.00093000	2.61154700	0.44729400	1.42394400	-2.53413200	0.01759900	-0.38753000	-0.27351800	0.22540000	-5.57077300	2.50864500
4764	47.63000000	0.80053500	-0.19181800	0.28235900	0.80606300	-0.05483800	-0.10719300	-1.24865100	-0.64014200	-0.98652800	-0.76780800	-0.30553500	-0.53620000	1.51066600	0.03925900	2.25458900	0.22275400	1.22510900	-2.19526300	0.10890500	-0.15959500	-0.43144600	-0.84115200	-5.67445800	2.58116500
4765	47.64000000	0.98730400	-0.10815000	0.13741700	0.98009700	-0.00530000	0.10558400	-1.56820100	-0.42458200	-0.59877000	-0.96624200	-0.94797400	-1.06855300	1.60678700	0.08712700	1.88435500	0.18686200	1.10445500	-1.97934700	0.18129700	0.01255100	-0.49612500	-0.45634300	-5.56519200	2.46022700
4766	47.65000000	0.98418300	0.08709400	0.05397600	1.17085200	0.03121600	0.26743100	-1.62402800	-0.14644700	-0.36582800	-1.15557700	-1.85146300	-1.49978700	1.62468800	0.12063300	1.56856500	0.36978300	1.07085500	-1.93012600	0.21980100	0.01963800	-0.43756100	0.14753200	-4.24541800	1.85868100
4767	47.66000000	0.84895300	0.22768600	0.00864500	1.35000400	-0.00920100	0.39336200	-1.32480700	-0.09987600	-0.36572600	-0.63542000	-1.94752000	-1.62473600	1.45584400	0.09933500	1.33428500	0.64189000	1.02638600	-1.89413700	0.13340200	-0.01211900	-0.30809400	-0.05942800	-2.59464700	1.14793900
4768	47.67000000	0.79983900	0.26080000	-0.00512400	1.46490000	-0.14083300	0.48883700	-0.63753700	-0.11822200	-0.67901900	0.79809800	-0.95504600	-1.64211800	1.19638600	0.04284100	1.13009100	0.89817300	0.88230700	-1.80566700	0.07629400	-0.06479900	-0.19183700	-1.19995800	-1.66289500	1.15166500
4769	47.68000000	0.86895400	0.23855300	0.00138500	1.45338100	-0.21350400	0.56855000	0.41888100	-0.12934000	-0.88460900	1.75954100	-0.19675100	-1.43378200	1.33335900	-0.04832800	0.84304700	1.04807400	0.63072600	-1.73254200	0.04383600	-0.10903500	-0.09537500	-0.00170600	1.39429600	0.17038600
4770	47.69000000	0.98669400	0.16110200	0.01281700	1.26674000	-0.12124600	0.55444000	1.49091500	-0.11868800	-0.59654900	1.63478100	-0.26993000	-1.24271400	1.80610900	-0.23248500	0.36065900	1.09213800	0.43307200	-1.74784600	-0.00664800	-0.14632800	-0.00326200	0.38811700	1.22497000	0.19197700
4771	47.70000000	1.09757300	0.09712900	0.03672400	0.97753800	-0.02435400	0.44548800	2.22341200	-0.10285100	-0.16541600	1.41022100	-0.57156000	-1.16928900	2.04244600	-0.35858700	-0.28947800	1.10324700	0.42473300	-1.81722500	0.00819700	-0.20286500	0.04266500	0.10827900	0.89265400	0.44096300
4772	47.71000000	1.20125100	0.07790600	0.07208500	0.80357100	0.03690300	0.34934100	2.38144000	-0.18653700	-0.00805400	1.51047600	-0.69746600	-1.14664700	1.90923600	-0.35935400	-0.97751800	1.11343000	0.53608500	-1.85318900	-0.01082200	-0.25135300	0.05829100	0.68420300	0.94261700	0.53917300
4773	47.72000000	1.26704200	0.10131700	0.12355000	0.78870900	0.09031900	0.26182700	2.09358600	-0.23927700	-0.09173400	1.52670300	-0.58224700	-1.13087200	1.43895300	-0.24278100	-1.60760000	1.06488700	0.65931300	-1.85240600	0.01922400	-0.27756900	0.03066500	1.01225000	1.39476700	0.46860600
4774	47.73000000	1.27624800	0.14538400	0.16350300	0.78104800	0.08124800	0.14826400	1.58793400	-0.20944700	-0.20666000	1.23670300	-0.37431000	-1.12297200	0.66653300	-0.07127400	-2.11021400	0.96043900	0.71893200	-1.73243700	0.02883000	-0.28698200	-0.01395100	1.25305400	1.94635100	0.38128800
4775	47.74000000	1.27196400	0.14388900	0.20878300	0.70424200	0.06022100	0.05867600	1.02213900	-0.14550300	-0.25420200	0.74600200	-0.31115700	-1.10584800	-0.23547000	0.02903400	-2.49653000	0.85759900	0.70555500	-1.53087800	0.04935100	-0.29605000	-0.05827400	1.21655000	2.34540300	0.36296600
4776	47.75000000	1.28134100	0.12645000	0.25180400	0.63845700	0.09170600	0.01445000	0.45479200	-0.09138500	-0.30834200	0.18467500	-0.46754400	-1.10627100	-0.78139200	-0.03509700	-2.84033100	0.74606500	0.64094500	-1.35237000	0.05099400	-0.30536000	-0.07825700	1.27337400	2.56893300	0.33892900
4777	47.76000000	1.31137700	0.10044100	0.28606400	0.60766100	0.14586400	-0.00620900	-0.04784800	-0.08323200	-0.38291900	-0.26139100	-0.68067900	-1.10075900	-0.72846600	-0.28534600	-3.08428400	0.66625100	0.56445500	-1.27325000	0.04123400	-0.32662000	-0.12102200	1.47531300	2.73920300	0.25877900
4778	47.77000000	1.31129800	0.08689400	0.33076100	0.57604100	0.17418300	-0.02559600	-0.43332200	-0.06696500	-0.42414200	-0.47351500	-0.75307300	-1.07915800	-0.24905500	-0.57665400	-3.25058500	0.66339500	0.50207700	-1.22493000	0.03078900	-0.34600500	-0.17901100	1.61762200	2.88818000	0.11879300
4779	47.78000000	1.27882400	0.09077400	0.36987200	0.51861700	0.14343300	-0.04704900	-0.60772100	-0.07177700	-0.43364200	-0.46535300	-0.64779200	-1.02100800	0.17692300	-0.64611400	-3.35359500	0.67978000	0.41770200	-1.15220200	0.03417900	-0.34754200	-0.23150100	1.65664400	2.97892000	-0.08196600
4780	47.79000000	1.24055500	0.08486400	0.39078000	0.44986600	0.09175100	-0.08547600	-0.61626100	-0.10333700	-0.44209700	-0.33373500	-0.42022600	-1.01463400	0.31155100	-0.36962900	-3.41108500	0.72071900	0.31358100	-1.00330100	0.03725700	-0.34965500	-0.27041400	1.59099200	2.95307400	-0.33572800
4781	47.80000000	1.23315700	0.06060600	0.37902700	0.36399700	0.07723700	-0.12034000	-0.53364400	-0.10854000	-0.43674000	-0.09947600	-0.19025300	-1.05478500	0.29713200	0.06705800	-3.49743600	0.70037300	0.17162500	-0.89469300	0.04279500	-0.36323500	-0.27779200	1.49838300	2.87168800	-0.67212900
4782	47.81000000	1.20872200	0.02268700	0.34952700	0.30069400	0.10652400	-0.13204700	-0.35448600	-0.08268200	-0.41527300	0.09335400	-0.08764900	-1.07049900	0.34203600	0.31376000	-3.63822000	0.64519700	0.04181900	-0.77711400	0.02078700	-0.36864100	-0.25775000	1.45241200	2.87523400	-1.07261800
4783	47.82000000	1.17656000	0.00588200	0.31243200	0.24692800	0.14757100	-0.12797500	-0.13362500	-0.06378200	-0.40006600	0.16692500	-0.14426700	-0.97511600	0.49842100	0.25145800	-3.79896000	0.56056200	-0.03494100	-0.66246500	0.02548400	-0.37665500	-0.24464800	1.31601400	2.99792000	-1.46877300
4784	47.83000000	1.14347000	-0.01240800	0.27794100	0.21649100	0.20227400	-0.13424700	0.10029600	-0.05428000	-0.40268300	0.13086600	-0.23964700	-0.84240500	0.65243800	0.07519400	-3.94755400	0.42286100	-0.06055500	-0.54245600	0.02271200	-0.37531500	-0.22794200	1.04004800	3.04404900	-1.75538500
4785	47.84000000	1.09304500	-0.01182700	0.25605700	0.20880800	0.25547900	-0.16516000	0.29655100	-0.06191300	-0.39713200	0.03136700	-0.27568400	-0.74922600	0.64817700	-0.03425900	-4.06589000	0.21785500	-0.06254100	-0.40090900	0.03039100	-0.37061300	-0.22447300	0.79727500	2.90681300	-1.92061300
4786	47.85000000	1.04451400	-0.04016100	0.23544500	0.23632300	0.28575600	-0.18857000	0.38478800	-0.05450600	-0.37366800	-0.06460100	-0.26050800	-0.69297600	0.38651700	-0.05274600	-4.14613200	-0.01464900	-0.03227200	-0.23501800	0.02479300	-0.37351000	-0.23216200	0.68420900	2.70921100	-2.04289500
4787	47.86000000	0.97787700	-0.03500900	0.20214800	0.26151400	0.28326100	-0.23356600	0.39131100	-0.03008300	-0.34905800	-0.15833900	-0.26904800	-0.69838500	-0.00116300	-0.14392900	-4.20423800	-0.23357200	0.00981300	-0.04136300	0.05467900	-0.37686400	-0.24743900	0.62784100	2.55234400	-2.18543900
4788	47.87000000	0.96548400	-0.00686200	0.14616800	0.26884700	0.26905700	-0.21974500	0.31021400	-0.02819200	-0.35137300	-0.22152000	-0.33123200	-0.74986200	-0.44382900	-0.32284400	-4.24446300	-0.36332200	0.07269600	0.13535700	0.05743900	-0.36878500	-0.28130400	0.51726400	2.34155800	-2.33511100
4789	47.88000000	1.00522500	-0.00852800	0.04966200	0.24238200	0.23838300	-0.19123300	0.18748800	-0.02047900	-0.37621100	-0.25258900	-0.39795500	-0.79688700	-0.93707600	-0.53415200	-4.23207000	-0.42697600	0.13553100	0.32057900	0.05752600	-0.37850700	-0.30683400	0.23996200	2.05645000	-2.47845400
4790	47.89000000	1.02182300	-0.04748400	-0.02872500	0.21219800	0.19848300	-0.14780000	0.03006200	-0.01171200	-0.41725100	-0.19130000	-0.39865500	-0.82098100	-1.45828000	-0.67506800	-4.19536700	-0.49875000	0.20142800	0.48566300	0.06846800	-0.38090100	-0.32095000	-0.00399200	1.70882300	-2.65765300
4791	47.90000000	0.95076300	-0.04853700	-0.06361000	0.18390000	0.15817400	-0.11392600	-0.12468800	0.01906100	-0.45836300	-0.04218000	-0.32060800	-0.82919200	-1.93917700	-0.63377500	-4.14729400	-0.56449800	0.25253500	0.62831000	0.05995400	-0.37932900	-0.33153500	-0.48525200	1.32423300	-2.93488800
4792	47.91000000	0.80407800	-0.03512500	-0.08150000	0.15990400	0.11775700	-0.08935500	-0.21237100	0.04936900	-0.49775400	0.12171400	-0.22640600	-0.84575200	-2.05925100	-0.57938400	-4.03387900	-0.55414200	0.25040500	0.70176600	0.08153900	-0.40870000	-0.34754200	-0.32210700	0.82120900	-3.24810600
4793	47.92000000	0.67509800	-0.05138800	-0.08277100	0.11113700	0.08374800	-0.08147200	-0.24524500	0.05328400	-0.52472400	0.26599200	-0.15527500	-0.87462800	-1.74523700	-0.54555700	-3.87011400	-0.42359500	0.22893800	0.67867100	0.07073200	-0.41488100	-0.35552200	0.40158900	0.68890000	-3.45221500
